Fly_normalized_Motion_pl07
version=1
nRows=16
nColumns=43
inDegrees=yes
endheader
time		pelvis_tilt		pelvis_list		pelvis_rotation		pelvis_tx		pelvis_ty		pelvis_tz		hip_flexion_r		hip_adduction_r		hip_rotation_r		knee_angle_r		ankle_angle_r		subtalar_angle_r		mtp_angle_r		hip_flexion_l		hip_adduction_l		hip_rotation_l		knee_angle_l		ankle_angle_l		subtalar_angle_l		mtp_angle_l		lumbar_extension		lumbar_bending		lumbar_rotation		neck_flexion		neck_lateral_bending		neck_rotation		arm_flex_r		arm_add_r		arm_rot_r		elbow_flex_r		pro_sup_r		wrist_flex_r		wrist_dev_r		hand_finger_flex_r		arm_flex_l		arm_add_l		arm_rot_l		elbow_flex_l		pro_sup_l		wrist_flex_l		wrist_dev_l		hand_finger_flex_l		
0.573333		2.068575		-13.191043		93.652051		-0.003433		1.459162		0.921216		63.671605		-8.774323		-8.556659		-50.319662		-18.292494		-2.151880		11.890993		59.897907		-5.103704		-1.286197		-45.821916		-20.526384		-8.555008		4.591201		-30.166199		4.621114		1.151655		13.921699		-0.356814		2.248338		-35.029463		-44.285946		-33.814807		77.473384		97.590033		-15.423189		2.476555		43.680525		-34.453448		-59.854329		-35.028209		61.120923		118.459396		-40.565400		2.639780		88.082937		
0.577323		2.138010		-12.687675		93.458659		-0.003235		1.449000		0.910311		62.350286		-8.458879		-8.647098		-48.781374		-18.914439		-1.979235		11.944899		58.484016		-5.412954		-1.579609		-43.855647		-21.421336		-9.189314		4.615976		-30.158129		4.660147		1.140414		13.308217		-0.544779		2.151981		-38.057940		-42.977819		-35.353900		77.050922		97.907312		-16.127654		1.458977		43.639474		-38.409896		-58.078086		-37.941528		60.199214		117.575137		-40.534235		2.259520		87.891666		
0.581313		2.086130		-12.394088		93.322183		-0.002980		1.438430		0.899251		61.222775		-8.319473		-8.793005		-47.253383		-19.333367		-1.900100		12.177819		57.268481		-5.674404		-2.087032		-41.893106		-22.283028		-9.219722		4.857520		-29.675228		4.515142		0.505371		11.670193		-0.161177		2.910907		-39.939356		-41.938259		-35.860757		75.948689		98.074997		-16.535343		0.306000		43.745022		-42.789312		-55.945964		-41.328132		59.169322		116.278735		-40.066341		1.326676		87.121430		
0.585303		2.140697		-12.062245		93.173403		-0.002793		1.427634		0.888145		60.043283		-8.076975		-8.918434		-45.729226		-19.803667		-1.791658		12.164534		56.054342		-6.004163		-2.507414		-40.028193		-22.857543		-9.185654		4.863670		-29.191025		4.531568		0.522654		9.959061		-0.248203		2.985635		-42.738459		-40.513400		-37.301525		75.354284		98.067290		-16.991213		-0.096988		43.841135		-45.563610		-54.277268		-43.053570		57.849583		115.865361		-40.168150		1.278376		87.032867		
0.589293		2.128838		-11.672758		92.998598		-0.002587		1.416827		0.876950		58.782895		-7.846680		-8.983455		-44.177890		-20.265136		-1.848433		12.209013		54.717688		-6.275468		-3.020353		-38.094650		-23.486702		-9.412708		4.932646		-28.788400		4.434148		0.278345		8.423041		-0.044334		3.229783		-45.061929		-39.278620		-38.294832		74.447678		98.199296		-17.390216		-1.225969		44.005115		-48.721051		-52.390468		-45.143720		56.671036		114.980399		-40.086766		0.795340		86.627563		
0.593283		2.148046		-11.370558		92.814704		-0.002328		1.405642		0.865696		57.626323		-7.615940		-9.122922		-42.666909		-20.696417		-1.817853		12.176033		53.516706		-6.584765		-3.513463		-36.270521		-23.914890		-9.275120		4.946937		-28.191034		4.380086		0.214946		6.511229		-0.040200		3.391095		-47.563060		-37.863836		-39.555139		73.747995		98.185996		-17.688682		-1.786213		44.142253		-51.323009		-50.659700		-46.732294		55.359601		114.569320		-40.225734		0.641778		86.454177		
0.597273		2.141574		-11.051219		92.634939		-0.002098		1.394371		0.854331		56.430418		-7.393832		-9.205946		-41.135478		-21.129110		-1.884182		12.132997		52.263546		-6.852324		-4.047832		-34.422627		-24.272397		-9.175899		4.966627		-27.590750		4.293290		0.075183		4.610266		0.055127		3.576394		-49.922887		-36.522612		-40.696405		72.957606		98.233767		-17.883350		-2.546816		44.303099		-53.905381		-48.890556		-48.278103		54.073317		114.163089		-40.356908		0.368877		86.206269		
0.601263		2.079512		-10.755999		92.434492		-0.001844		1.382926		0.842847		55.275074		-7.181639		-9.201942		-39.626073		-21.606967		-2.156748		12.117959		50.985635		-7.058723		-4.607423		-32.546406		-24.520436		-9.072109		5.063207		-26.947761		4.105779		-0.250309		2.738740		0.394149		3.948266		-52.004465		-35.399830		-41.564178		71.887031		98.425931		-17.798113		-3.946687		44.618191		-56.627135		-46.959670		-49.947863		52.802216		113.676447		-40.311700		-0.417909		85.604667		
0.605253		2.066624		-10.510182		92.291257		-0.001638		1.371169		0.831387		54.163194		-7.022756		-9.341564		-38.132059		-21.994787		-2.193083		12.070028		49.846012		-7.263769		-5.066522		-30.796612		-24.759583		-8.735148		5.089796		-26.220511		4.040550		-0.364537		0.832300		0.381204		4.127426		-54.377671		-33.947617		-42.843301		71.254875		98.421084		-17.930767		-4.423566		44.761130		-58.874481		-45.231664		-51.277867		51.553730		113.527442		-40.469788		-0.618976		85.386788		
0.609242		2.016731		-10.257896		92.126860		-0.001479		1.359282		0.819803		53.045237		-6.875084		-9.435416		-36.643128		-22.438183		-2.340924		12.013909		48.661421		-7.427260		-5.550447		-29.033711		-24.862253		-8.383475		5.130852		-25.464138		3.935690		-0.524901		-1.184720		0.409317		4.319081		-56.668978		-32.580112		-44.052779		70.554170		98.530547		-17.886900		-5.080445		44.924071		-61.076352		-43.494785		-52.537265		50.288249		113.497946		-40.600226		-0.968114		85.090687		
0.613232		1.963537		-10.047300		92.002718		-0.001347		1.347168		0.808196		51.969431		-6.760420		-9.533121		-35.163274		-22.876967		-2.502891		11.957590		47.530849		-7.544790		-5.985808		-27.295112		-24.913920		-7.989086		5.167944		-24.657050		3.840176		-0.704028		-3.139264		0.409106		4.499252		-58.943884		-31.179067		-45.289995		69.891013		98.671861		-17.784642		-5.704050		45.054820		-63.194307		-41.775148		-53.756104		49.060670		113.522070		-40.718385		-1.315570		84.806272		
0.617222		1.895835		-9.861326		91.889224		-0.001272		1.334849		0.796553		50.928338		-6.676897		-9.644320		-33.707299		-23.321905		-2.682458		11.904044		46.436134		-7.622495		-6.376561		-25.597177		-24.916872		-7.574740		5.201896		-23.813236		3.738805		-0.890096		-5.079849		0.381381		4.663431		-61.191015		-29.767181		-46.550458		69.246859		98.855027		-17.619695		-6.307801		45.140349		-65.237819		-40.062178		-54.933628		47.868137		113.571901		-40.797853		-1.666954		84.518761		
0.621212		1.822112		-9.708138		91.803920		-0.001272		1.322300		0.784905		49.925545		-6.628410		-9.762740		-32.266918		-23.742253		-2.849345		11.855668		45.389532		-7.658207		-6.712207		-23.935403		-24.888672		-7.180769		5.225762		-22.935007		3.646736		-1.083667		-6.961206		0.327559		4.799365		-63.413072		-28.327394		-47.821644		68.639044		99.047216		-17.447723		-6.835205		45.152906		-67.211341		-38.367788		-56.052326		46.732685		113.576472		-40.839542		-1.951486		84.251989		
0.625202		1.740039		-9.575463		91.729392		-0.001350		1.309581		0.773247		48.946703		-6.605412		-9.893116		-30.841218		-24.140249		-3.005970		11.811551		44.375529		-7.662937		-7.014322		-22.313087		-24.843878		-6.822833		5.240409		-22.034926		3.554028		-1.278960		-8.834031		0.257745		4.917464		-65.602674		-26.877860		-49.091848		68.049634		99.247013		-17.278249		-7.314710		45.092105		-69.129939		-36.680586		-57.114008		45.651106		113.500968		-40.842745		-2.169078		83.992325		
0.629192		1.654605		-9.467272		91.669986		-0.001470		1.296662		0.761588		47.996752		-6.602086		-10.033013		-29.435520		-24.493083		-3.147312		11.774234		43.408133		-7.646489		-7.284003		-20.748937		-24.794731		-6.525172		5.244981		-21.117797		3.460098		-1.477611		-10.675707		0.182231		5.025453		-67.742116		-25.415741		-50.340091		67.466581		99.450396		-17.126365		-7.751337		44.939969		-70.993732		-35.001865		-58.099464		44.630393		113.297144		-40.795510		-2.300428		83.729908		
0.633182		1.575371		-9.375889		91.624527		-0.001653		1.283580		0.749918		47.066239		-6.612827		-10.184640		-28.052913		-24.789960		-3.267426		11.743537		42.484607		-7.618211		-7.537479		-19.253256		-24.759346		-6.295278		5.242036		-20.190344		3.373666		-1.674305		-12.496053		0.107870		5.135491		-69.824224		-23.950694		-51.551934		66.878909		99.644696		-17.014205		-8.154927		44.703458		-72.814662		-33.332802		-59.003063		43.660910		112.953471		-40.704902		-2.344694		83.457906		
